<mxfile host="drawio-plugin" modified="2022-08-20T02:24:48.438Z" agent="5.0 (X11; Linux x86_64) AppleWebKit/537.36 (KHTML, like Gecko) Chrome/98.0.4758.102 Safari/537.36" etag="ry3hKpBaChDh2YpCD0GW" version="15.5.4" type="embed"><diagram id="R_2dGIdVa1e73xK-Mh6m" name="Page-1"><mxGraphModel dx="1028" dy="723" grid="1" gridSize="10" guides="1" tooltips="1" connect="1" arrows="1" fold="1" page="1" pageScale="1" pageWidth="1100" pageHeight="850" math="0" shadow="0"><root><mxCell id="0"/><mxCell id="1" parent="0"/><mxCell id="FNKmYs-UAkA-WbJi6fW0-16" value="" style="rounded=0;whiteSpace=wrap;html=1;dashed=1;" parent="1" vertex="1"><mxGeometry x="230" y="490" width="230" height="90" as="geometry"/></mxCell><mxCell id="FNKmYs-UAkA-WbJi6fW0-14" value="" style="rounded=0;whiteSpace=wrap;html=1;dashed=1;" parent="1" vertex="1"><mxGeometry x="300" y="610" width="190" height="70" as="geometry"/></mxCell><mxCell id="FNKmYs-UAkA-WbJi6fW0-13" value="" style="rounded=0;whiteSpace=wrap;html=1;dashed=1;" parent="1" vertex="1"><mxGeometry x="90" y="610" width="200" height="70" as="geometry"/></mxCell><mxCell id="FNKmYs-UAkA-WbJi6fW0-1" value="Pod" style="ellipse;whiteSpace=wrap;html=1;aspect=fixed;" parent="1" vertex="1"><mxGeometry x="250" y="495" width="80" height="80" as="geometry"/></mxCell><mxCell id="FNKmYs-UAkA-WbJi6fW0-2" value="Deployment" style="rounded=0;whiteSpace=wrap;html=1;" parent="1" vertex="1"><mxGeometry x="120" y="280" width="120" height="60" as="geometry"/></mxCell><mxCell id="FNKmYs-UAkA-WbJi6fW0-3" value="ReplicaSet" style="rounded=1;whiteSpace=wrap;html=1;" parent="1" vertex="1"><mxGeometry x="220" y="360" width="120" height="60" as="geometry"/></mxCell><mxCell id="FNKmYs-UAkA-WbJi6fW0-4" value="CronJob" style="rounded=1;whiteSpace=wrap;html=1;" parent="1" vertex="1"><mxGeometry x="650" y="360" width="120" height="60" as="geometry"/></mxCell><mxCell id="FNKmYs-UAkA-WbJi6fW0-5" value="&lt;div&gt;Job&lt;/div&gt;" style="rounded=1;whiteSpace=wrap;html=1;" parent="1" vertex="1"><mxGeometry x="460" y="360" width="120" height="60" as="geometry"/></mxCell><mxCell id="FNKmYs-UAkA-WbJi6fW0-6" value="DaemonSet" style="rounded=1;whiteSpace=wrap;html=1;" parent="1" vertex="1"><mxGeometry x="830" y="360" width="120" height="60" as="geometry"/></mxCell><mxCell id="FNKmYs-UAkA-WbJi6fW0-7" value="StatefulSet" style="rounded=0;whiteSpace=wrap;html=1;" parent="1" vertex="1"><mxGeometry x="300" y="280" width="120" height="60" as="geometry"/></mxCell><mxCell id="FNKmYs-UAkA-WbJi6fW0-8" value="Container" style="shape=hexagon;perimeter=hexagonPerimeter2;whiteSpace=wrap;html=1;fixedSize=1;" parent="1" vertex="1"><mxGeometry x="110" y="630" width="70" height="30" as="geometry"/></mxCell><mxCell id="FNKmYs-UAkA-WbJi6fW0-9" value="Container" style="shape=hexagon;perimeter=hexagonPerimeter2;whiteSpace=wrap;html=1;fixedSize=1;" parent="1" vertex="1"><mxGeometry x="210" y="630" width="70" height="30" as="geometry"/></mxCell><mxCell id="FNKmYs-UAkA-WbJi6fW0-11" value="Container" style="shape=hexagon;perimeter=hexagonPerimeter2;whiteSpace=wrap;html=1;fixedSize=1;" parent="1" vertex="1"><mxGeometry x="310" y="630" width="70" height="30" as="geometry"/></mxCell><mxCell id="FNKmYs-UAkA-WbJi6fW0-12" value="Container" style="shape=hexagon;perimeter=hexagonPerimeter2;whiteSpace=wrap;html=1;fixedSize=1;" parent="1" vertex="1"><mxGeometry x="410" y="630" width="70" height="30" as="geometry"/></mxCell><mxCell id="FNKmYs-UAkA-WbJi6fW0-15" value="Pod" style="ellipse;whiteSpace=wrap;html=1;aspect=fixed;" parent="1" vertex="1"><mxGeometry x="360" y="495" width="80" height="80" as="geometry"/></mxCell><mxCell id="FNKmYs-UAkA-WbJi6fW0-19" value="LoadBalancer" style="shape=step;perimeter=stepPerimeter;whiteSpace=wrap;html=1;fixedSize=1;dashed=1;" parent="1" vertex="1"><mxGeometry x="130" y="35" width="120" height="80" as="geometry"/></mxCell><mxCell id="FNKmYs-UAkA-WbJi6fW0-20" value="NodePort" style="shape=step;perimeter=stepPerimeter;whiteSpace=wrap;html=1;fixedSize=1;dashed=1;" parent="1" vertex="1"><mxGeometry x="290" y="30" width="120" height="80" as="geometry"/></mxCell><mxCell id="FNKmYs-UAkA-WbJi6fW0-21" value="ClusterIP" style="shape=step;perimeter=stepPerimeter;whiteSpace=wrap;html=1;fixedSize=1;dashed=1;" parent="1" vertex="1"><mxGeometry x="180" y="145" width="120" height="80" as="geometry"/></mxCell><mxCell id="FNKmYs-UAkA-WbJi6fW0-22" value="ExternalName" style="shape=step;perimeter=stepPerimeter;whiteSpace=wrap;html=1;fixedSize=1;dashed=1;" parent="1" vertex="1"><mxGeometry x="330" y="145" width="120" height="80" as="geometry"/></mxCell></root></mxGraphModel></diagram></mxfile>